<mxfile host="app.diagrams.net" modified="2023-05-07T22:45:43.699Z" agent="Mozilla/5.0 (Windows NT 10.0; Win64; x64) AppleWebKit/537.36 (KHTML, like Gecko) Chrome/112.0.0.0 Safari/537.36" etag="UAgyJxUcJml_dfSaJxXj" version="21.2.9" type="github">
  <diagram name="第 1 页" id="ruGdGsVqz76HTMlJoUBi">
    <mxGraphModel dx="1804" dy="376" grid="1" gridSize="10" guides="1" tooltips="1" connect="1" arrows="1" fold="1" page="1" pageScale="1" pageWidth="827" pageHeight="1169" math="0" shadow="0">
      <root>
        <mxCell id="0" />
        <mxCell id="1" parent="0" />
        <mxCell id="9S9opLhV0Gk6htUkP5t5-1" value="" style="rounded=0;whiteSpace=wrap;html=1;fillColor=#d5e8d4;strokeColor=#82b366;" vertex="1" parent="1">
          <mxGeometry x="120" y="320" width="520" height="40" as="geometry" />
        </mxCell>
        <mxCell id="9S9opLhV0Gk6htUkP5t5-2" value="memory" style="rounded=1;whiteSpace=wrap;html=1;fillColor=#fff2cc;strokeColor=#d6b656;" vertex="1" parent="1">
          <mxGeometry x="130" y="330" width="70" height="20" as="geometry" />
        </mxCell>
        <mxCell id="9S9opLhV0Gk6htUkP5t5-3" value="fielSystem" style="rounded=1;whiteSpace=wrap;html=1;fillColor=#fff2cc;strokeColor=#d6b656;" vertex="1" parent="1">
          <mxGeometry x="220" y="330" width="70" height="20" as="geometry" />
        </mxCell>
        <mxCell id="9S9opLhV0Gk6htUkP5t5-4" value="CPU" style="rounded=1;whiteSpace=wrap;html=1;fillColor=#fff2cc;strokeColor=#d6b656;" vertex="1" parent="1">
          <mxGeometry x="310" y="330" width="70" height="20" as="geometry" />
        </mxCell>
        <mxCell id="9S9opLhV0Gk6htUkP5t5-6" value="Network" style="rounded=1;whiteSpace=wrap;html=1;fillColor=#fff2cc;strokeColor=#d6b656;" vertex="1" parent="1">
          <mxGeometry x="400" y="330" width="70" height="20" as="geometry" />
        </mxCell>
        <mxCell id="9S9opLhV0Gk6htUkP5t5-7" value="Other Devices" style="rounded=1;whiteSpace=wrap;html=1;fillColor=#fff2cc;strokeColor=#d6b656;" vertex="1" parent="1">
          <mxGeometry x="490" y="330" width="90" height="20" as="geometry" />
        </mxCell>
        <mxCell id="9S9opLhV0Gk6htUkP5t5-8" value="System Resources" style="text;html=1;align=center;verticalAlign=middle;resizable=0;points=[];autosize=1;strokeColor=none;fillColor=none;" vertex="1" parent="1">
          <mxGeometry x="-10" y="328" width="120" height="30" as="geometry" />
        </mxCell>
        <mxCell id="9S9opLhV0Gk6htUkP5t5-9" value="kernel" style="rounded=0;whiteSpace=wrap;html=1;fillColor=#e1d5e7;strokeColor=#9673a6;" vertex="1" parent="1">
          <mxGeometry x="120" y="240" width="520" height="40" as="geometry" />
        </mxCell>
        <mxCell id="9S9opLhV0Gk6htUkP5t5-10" value="kernel，the core module of&lt;br&gt;operating system" style="text;html=1;align=center;verticalAlign=middle;resizable=0;points=[];autosize=1;strokeColor=none;fillColor=none;" vertex="1" parent="1">
          <mxGeometry x="-50" y="240" width="170" height="40" as="geometry" />
        </mxCell>
        <mxCell id="9S9opLhV0Gk6htUkP5t5-11" value="System call API interface" style="rounded=0;whiteSpace=wrap;html=1;fillColor=#e1d5e7;strokeColor=#9673a6;" vertex="1" parent="1">
          <mxGeometry x="120" y="220" width="520" height="20" as="geometry" />
        </mxCell>
        <mxCell id="9S9opLhV0Gk6htUkP5t5-12" value="libc or（or equivalent）" style="rounded=0;whiteSpace=wrap;html=1;fillColor=#e1d5e7;strokeColor=#9673a6;" vertex="1" parent="1">
          <mxGeometry x="120" y="160" width="520" height="20" as="geometry" />
        </mxCell>
        <mxCell id="9S9opLhV0Gk6htUkP5t5-13" value="Platform-specific syscall&lt;br&gt;wrapper APIs" style="text;html=1;align=center;verticalAlign=middle;resizable=0;points=[];autosize=1;strokeColor=none;fillColor=none;" vertex="1" parent="1">
          <mxGeometry x="-50" y="150" width="150" height="40" as="geometry" />
        </mxCell>
        <mxCell id="9S9opLhV0Gk6htUkP5t5-15" value="Rust standard library" style="rounded=0;whiteSpace=wrap;html=1;fillColor=#f8cecc;strokeColor=#b85450;" vertex="1" parent="1">
          <mxGeometry x="120" y="80" width="520" height="40" as="geometry" />
        </mxCell>
        <mxCell id="9S9opLhV0Gk6htUkP5t5-16" value="Cross-platform API&lt;br&gt;for syscalls" style="text;html=1;align=center;verticalAlign=middle;resizable=0;points=[];autosize=1;strokeColor=none;fillColor=none;" vertex="1" parent="1">
          <mxGeometry x="-40" y="80" width="120" height="40" as="geometry" />
        </mxCell>
        <mxCell id="9S9opLhV0Gk6htUkP5t5-17" value="editor" style="ellipse;whiteSpace=wrap;html=1;fillColor=#dae8fc;strokeColor=#6c8ebf;" vertex="1" parent="1">
          <mxGeometry x="117.5" width="80" height="40" as="geometry" />
        </mxCell>
        <mxCell id="9S9opLhV0Gk6htUkP5t5-18" value="terminal" style="ellipse;whiteSpace=wrap;html=1;fillColor=#dae8fc;strokeColor=#6c8ebf;" vertex="1" parent="1">
          <mxGeometry x="237.5" width="80" height="40" as="geometry" />
        </mxCell>
        <mxCell id="9S9opLhV0Gk6htUkP5t5-19" value="ssh" style="ellipse;whiteSpace=wrap;html=1;fillColor=#dae8fc;strokeColor=#6c8ebf;" vertex="1" parent="1">
          <mxGeometry x="357.5" width="80" height="40" as="geometry" />
        </mxCell>
        <mxCell id="9S9opLhV0Gk6htUkP5t5-20" value="firewall" style="ellipse;whiteSpace=wrap;html=1;fillColor=#dae8fc;strokeColor=#6c8ebf;" vertex="1" parent="1">
          <mxGeometry x="477.5" width="80" height="40" as="geometry" />
        </mxCell>
        <mxCell id="9S9opLhV0Gk6htUkP5t5-21" value="User space programs" style="text;html=1;align=center;verticalAlign=middle;resizable=0;points=[];autosize=1;strokeColor=none;fillColor=none;" vertex="1" parent="1">
          <mxGeometry x="-47.5" y="5" width="140" height="30" as="geometry" />
        </mxCell>
      </root>
    </mxGraphModel>
  </diagram>
</mxfile>
